<svg width="71" height="63" viewBox="0 0 71 63" fill="none" xmlns="http://www.w3.org/2000/svg">
<path d="M64.4002 6.70843C60.6237 2.97092 55.6357 0.706265 50.3363 0.323096C45.0369 -0.0600731 39.775 1.46348 35.5002 4.61885C30.9939 1.26715 25.3851 -0.252675 19.8032 0.365438C14.2213 0.983552 9.08089 3.69369 5.41715 7.95009C1.75341 12.2065 -0.161509 17.693 0.0579994 23.3047C0.277508 28.9165 2.61514 34.2366 6.60016 38.1938L27.8502 59.6209C29.8424 61.6106 32.5429 62.7282 35.3585 62.7282C38.1741 62.7282 40.8746 61.6106 42.8668 59.6209L64.1168 38.1938C66.2097 36.1491 67.8779 33.7108 69.0254 31.0193C70.1729 28.3277 70.7772 25.4359 70.8036 22.51C70.8299 19.5842 70.2777 16.682 69.1788 13.9702C68.0799 11.2584 66.4559 8.79055 64.4002 6.70843V6.70843ZM59.4064 33.1293L38.1564 54.3793C37.8272 54.7112 37.4355 54.9747 37.0039 55.1545C36.5723 55.3343 36.1094 55.4269 35.6418 55.4269C35.1743 55.4269 34.7114 55.3343 34.2798 55.1545C33.8482 54.9747 33.4565 54.7112 33.1272 54.3793L11.8772 33.1293C9.09972 30.2901 7.54441 26.4761 7.54441 22.5043C7.54441 18.5324 9.09972 14.7185 11.8772 11.8793C14.7076 9.08485 18.5249 7.51794 22.5022 7.51794C26.4796 7.51794 30.2969 9.08485 33.1272 11.8793C33.4565 12.2112 33.8482 12.4747 34.2798 12.6545C34.7114 12.8343 35.1743 12.9269 35.6418 12.9269C36.1094 12.9269 36.5723 12.8343 37.0039 12.6545C37.4355 12.4747 37.8272 12.2112 38.1564 11.8793C41.0633 9.56616 44.7199 8.40391 48.4288 8.61418C52.1377 8.82444 55.6395 10.3925 58.2663 13.0193C60.8932 15.6462 62.4612 19.1479 62.6715 22.8569C62.8818 26.5658 61.7195 30.2224 59.4064 33.1293V33.1293Z" fill="white"/>
</svg>
