<svg width="71" height="37" viewBox="0 0 71 37" fill="none" xmlns="http://www.w3.org/2000/svg">
<path d="M69.8893 1.81886C69.56 1.4869 69.1683 1.22343 68.7367 1.04362C68.3052 0.863814 67.8422 0.77124 67.3747 0.77124C66.9072 0.77124 66.4442 0.863814 66.0127 1.04362C65.5811 1.22343 65.1894 1.4869 64.8601 1.81886L42.583 24.1314L27.3893 8.90219C27.06 8.57024 26.6683 8.30676 26.2367 8.12695C25.8052 7.94715 25.3422 7.85457 24.8747 7.85457C24.4072 7.85457 23.9442 7.94715 23.5127 8.12695C23.0811 8.30676 22.6894 8.57024 22.3601 8.90219L1.11012 30.1522C0.778164 30.4814 0.514684 30.8732 0.334879 31.3047C0.155073 31.7363 0.0625 32.1992 0.0625 32.6668C0.0625 33.1343 0.155073 33.5972 0.334879 34.0288C0.514684 34.4604 0.778164 34.8521 1.11012 35.1814C1.43936 35.5133 1.83108 35.7768 2.26266 35.9566C2.69425 36.1364 3.15716 36.229 3.6247 36.229C4.09224 36.229 4.55516 36.1364 4.98674 35.9566C5.41833 35.7768 5.81004 35.5133 6.13929 35.1814L24.8747 16.4105L40.0685 31.6397C40.3977 31.9717 40.7894 32.2351 41.221 32.4149C41.6526 32.5947 42.1155 32.6873 42.583 32.6873C43.0506 32.6873 43.5135 32.5947 43.9451 32.4149C44.3767 32.2351 44.7684 31.9717 45.0976 31.6397L69.8893 6.84803C70.2212 6.51878 70.4847 6.12707 70.6645 5.69549C70.8443 5.2639 70.9369 4.80099 70.9369 4.33344C70.9369 3.8659 70.8443 3.40299 70.6645 2.9714C70.4847 2.53982 70.2212 2.1481 69.8893 1.81886Z" fill="white"/>
</svg>
