<svg width="73" height="73" viewBox="0 0 73 73" fill="none" xmlns="http://www.w3.org/2000/svg">
<path d="M19.4468 63.4344L21.5897 60.0569C20.5742 59.4126 19.3228 59.2594 18.1819 59.6397L19.4468 63.4344ZM4.625 68.375L0.830267 67.1101C0.351154 68.5474 0.725244 70.1321 1.79657 71.2034C2.8679 72.2748 4.45257 72.6488 5.88991 72.1697L4.625 68.375ZM9.56559 53.5532L13.3603 54.8181C13.7406 53.6772 13.5874 52.4258 12.9431 51.4103L9.56559 53.5532ZM50.6667 36.5V32.5C48.4575 32.5 46.6667 34.2909 46.6667 36.5H50.6667ZM50.6738 36.5H54.6738C54.6738 34.2909 52.8829 32.5 50.6738 32.5V36.5ZM50.6738 36.5071V40.5071C52.8829 40.5071 54.6738 38.7162 54.6738 36.5071H50.6738ZM50.6667 36.5071H46.6667C46.6667 38.7162 48.4575 40.5071 50.6667 40.5071V36.5071ZM36.5 36.5V32.5C34.2909 32.5 32.5 34.2909 32.5 36.5H36.5ZM36.5071 36.5H40.5071C40.5071 34.2909 38.7162 32.5 36.5071 32.5V36.5ZM36.5071 36.5071V40.5071C38.7162 40.5071 40.5071 38.7162 40.5071 36.5071H36.5071ZM36.5 36.5071H32.5C32.5 38.7162 34.2909 40.5071 36.5 40.5071V36.5071ZM22.3333 36.5V32.5C20.1242 32.5 18.3333 34.2909 18.3333 36.5H22.3333ZM22.3404 36.5H26.3404C26.3404 34.2909 24.5496 32.5 22.3404 32.5V36.5ZM22.3404 36.5071V40.5071C24.5496 40.5071 26.3404 38.7162 26.3404 36.5071H22.3404ZM22.3333 36.5071H18.3333C18.3333 38.7162 20.1242 40.5071 22.3333 40.5071V36.5071ZM36.5 72.375C56.3132 72.375 72.375 56.3132 72.375 36.5H64.375C64.375 51.8949 51.8949 64.375 36.5 64.375V72.375ZM17.3038 66.812C22.857 70.3353 29.4464 72.375 36.5 72.375V64.375C31.0086 64.375 25.8993 62.7911 21.5897 60.0569L17.3038 66.812ZM18.1819 59.6397L3.36009 64.5803L5.88991 72.1697L20.7117 67.2291L18.1819 59.6397ZM8.41973 69.6399L13.3603 54.8181L5.77085 52.2883L0.830267 67.1101L8.41973 69.6399ZM0.625 36.5C0.625 43.5536 2.66472 50.143 6.18804 55.6962L12.9431 51.4103C10.2089 47.1007 8.625 41.9914 8.625 36.5H0.625ZM36.5 0.625C16.6868 0.625 0.625 16.6868 0.625 36.5H8.625C8.625 21.1051 21.1051 8.625 36.5 8.625V0.625ZM72.375 36.5C72.375 16.6868 56.3132 0.625 36.5 0.625V8.625C51.8949 8.625 64.375 21.1051 64.375 36.5H72.375ZM50.6667 40.5H50.6738V32.5H50.6667V40.5ZM46.6738 36.5V36.5071H54.6738V36.5H46.6738ZM50.6738 32.5071H50.6667V40.5071H50.6738V32.5071ZM54.6667 36.5071V36.5H46.6667V36.5071H54.6667ZM36.5 40.5H36.5071V32.5H36.5V40.5ZM32.5071 36.5V36.5071H40.5071V36.5H32.5071ZM36.5071 32.5071H36.5V40.5071H36.5071V32.5071ZM40.5 36.5071V36.5H32.5V36.5071H40.5ZM22.3333 40.5H22.3404V32.5H22.3333V40.5ZM18.3404 36.5V36.5071H26.3404V36.5H18.3404ZM22.3404 32.5071H22.3333V40.5071H22.3404V32.5071ZM26.3333 36.5071V36.5H18.3333V36.5071H26.3333Z" fill="white"/>
</svg>
