<svg width="71" height="69" viewBox="0 0 71 69" fill="none" xmlns="http://www.w3.org/2000/svg">
<path d="M60.2918 15.0209H49.6668V11.4792C49.6668 8.66132 48.5474 5.95881 46.5548 3.96624C44.5623 1.97366 41.8598 0.854248 39.0418 0.854248H31.9585C29.1406 0.854248 26.4381 1.97366 24.4455 3.96624C22.4529 5.95881 21.3335 8.66132 21.3335 11.4792V15.0209H10.7085C7.89057 15.0209 5.18806 16.1403 3.19549 18.1329C1.20291 20.1255 0.0834961 22.828 0.0834961 25.6459V57.5209C0.0834961 60.3388 1.20291 63.0413 3.19549 65.0339C5.18806 67.0265 7.89057 68.1459 10.7085 68.1459H60.2918C63.1098 68.1459 65.8123 67.0265 67.8048 65.0339C69.7974 63.0413 70.9168 60.3388 70.9168 57.5209V25.6459C70.9168 22.828 69.7974 20.1255 67.8048 18.1329C65.8123 16.1403 63.1098 15.0209 60.2918 15.0209ZM28.4168 11.4792C28.4168 10.5399 28.79 9.6391 29.4542 8.97491C30.1184 8.31072 31.0192 7.93758 31.9585 7.93758H39.0418C39.9811 7.93758 40.882 8.31072 41.5462 8.97491C42.2104 9.6391 42.5835 10.5399 42.5835 11.4792V15.0209H28.4168V11.4792ZM63.8335 57.5209C63.8335 58.4602 63.4604 59.3611 62.7962 60.0253C62.132 60.6894 61.2311 61.0626 60.2918 61.0626H10.7085C9.76919 61.0626 8.86835 60.6894 8.20416 60.0253C7.53997 59.3611 7.16683 58.4602 7.16683 57.5209V38.0417C16.1848 41.6193 25.7984 43.4579 35.5002 43.4605C45.2016 43.4545 54.8145 41.616 63.8335 38.0417V57.5209ZM63.8335 30.2855C54.9028 34.2089 45.2546 36.2347 35.5002 36.2347C25.7457 36.2347 16.0975 34.2089 7.16683 30.2855V25.6459C7.16683 24.7066 7.53997 23.8058 8.20416 23.1416C8.86835 22.4774 9.76919 22.1042 10.7085 22.1042H60.2918C61.2311 22.1042 62.132 22.4774 62.7962 23.1416C63.4604 23.8058 63.8335 24.7066 63.8335 25.6459V30.2855Z" fill="white"/>
</svg>
