<svg width="25" height="25" viewBox="0 0 25 25" fill="none" xmlns="http://www.w3.org/2000/svg">
<path fill-rule="evenodd" clip-rule="evenodd" d="M18.6626 0.0894136C17.0591 0.0178828 16.5763 0 12.499 0C8.42177 0 7.93894 0.0178828 6.33546 0.0894136C4.85119 0.154983 4.04051 0.405342 3.50403 0.613973C2.79468 0.888174 2.28801 1.21602 1.75153 1.7525C1.22101 2.28302 0.887197 2.79566 0.612996 3.50501C0.404364 4.04149 0.154007 4.84621 0.0884368 6.33643C0.0169061 7.93991 -0.000976562 8.42275 -0.000976562 12.5C-0.000976562 16.5713 0.0169061 17.0541 0.0884368 18.6636C0.154007 20.1478 0.404364 20.9585 0.612996 21.495C0.887197 22.2043 1.21505 22.711 1.75153 23.2475C2.28205 23.778 2.79468 24.1118 3.50403 24.386C4.04051 24.5947 4.84523 24.845 6.33546 24.9106C7.93894 24.9821 8.42177 25 12.499 25C16.5703 25 17.0531 24.9821 18.6626 24.9106C20.1469 24.845 20.9575 24.5947 21.494 24.386C22.2034 24.1118 22.71 23.784 23.2465 23.2475C23.777 22.717 24.1108 22.2043 24.385 21.495C24.5937 20.9585 24.844 20.1538 24.9096 18.6636C24.9811 17.0601 24.999 16.5773 24.999 12.5C24.999 8.42871 24.9811 7.94587 24.9096 6.33643C24.844 4.85217 24.5937 4.04149 24.385 3.50501C24.1108 2.79566 23.783 2.28898 23.2465 1.7525C22.716 1.22198 22.2034 0.888174 21.494 0.613973C20.9575 0.405342 20.1528 0.154983 18.6626 0.0894136ZM12.499 4.67334C8.17141 4.67334 4.66044 8.18431 4.66044 12.5119C4.66044 16.8395 8.17141 20.3505 12.499 20.3505C16.8266 20.3505 20.3376 16.8395 20.3376 12.5119C20.3376 8.18431 16.8266 4.67334 12.499 4.67334ZM12.499 17.5966C9.69144 17.5966 7.41438 15.3195 7.41438 12.5119C7.41438 9.70434 9.69144 7.42728 12.499 7.42728C15.3066 7.42728 17.5837 9.70434 17.5837 12.5119C17.5837 15.3195 15.3066 17.5966 12.499 17.5966ZM20.6476 6.19332C21.655 6.19332 22.4776 5.37667 22.4776 4.36332C22.4776 3.35593 21.655 2.53332 20.6476 2.53332C19.6402 2.53332 18.8176 3.34997 18.8176 4.36332C18.8176 5.37071 19.6342 6.19332 20.6476 6.19332Z" fill="white"/>
</svg>
