<svg width="198" height="54" viewBox="0 0 198 54" fill="none" xmlns="http://www.w3.org/2000/svg">
<mask id="mask0_360_344" style="mask-type:alpha" maskUnits="userSpaceOnUse" x="36" y="0" width="161" height="54">
<rect x="36.7744" width="159.925" height="53.8784" fill="#C4C4C4"/>
</mask>
<g mask="url(#mask0_360_344)">
<path fill-rule="evenodd" clip-rule="evenodd" d="M79.7084 37.3063C79.9354 36.2469 80.0111 35.1875 80.0111 34.0524C80.0111 23.1556 70.4746 14.302 58.6675 14.302C46.9362 14.302 37.3997 23.1556 37.3997 34.0524C37.3997 44.9491 47.6173 53.8028 60.1056 53.8028C66.5629 53.8028 72.501 51.4664 76.7153 47.5676L70.8483 41.7017C68.2705 44.2584 64.3334 45.8572 60.1056 45.8572C53.7479 45.8572 48.3742 42.2249 46.6334 37.3063H79.7084ZM46.6334 30.7985C48.1471 25.8798 52.9911 22.2476 58.6675 22.2476C64.4197 22.2476 69.2636 25.8798 70.7774 30.7985H46.6334Z" fill="white"/>
<path d="M94.9301 52.9704V32.5751L89.5976 27.4058L94.9301 21.9069V0H86.2262V52.9704H94.9301Z" fill="white"/>
<path d="M111.56 52.9704V0H102.857V21.684L108.13 26.7956L102.857 32.2357V52.9704H111.56Z" fill="white"/>
<path fill-rule="evenodd" clip-rule="evenodd" d="M159.903 37.3063C160.13 36.2469 160.206 35.1875 160.206 34.0524C160.206 23.1556 150.67 14.302 138.863 14.302C127.131 14.302 117.595 23.1556 117.595 34.0524C117.595 44.9491 127.812 53.8028 140.301 53.8028C146.817 53.8028 152.805 51.4232 157.026 47.4597L151.154 41.5905C148.579 44.2119 144.589 45.8572 140.301 45.8572C133.943 45.8572 128.569 42.2249 126.828 37.3063H159.903ZM126.828 30.7985C128.342 25.8798 133.186 22.2476 138.863 22.2476C144.615 22.2476 149.459 25.8798 150.972 30.7985H126.828Z" fill="white"/>
<path d="M183.148 29.5877C182.542 29.4364 182.088 29.2851 181.634 29.1338L181.634 29.1337C181.493 29.0395 181.293 28.9746 181.071 28.9025L181.07 28.9024C181.012 28.8834 180.952 28.864 180.891 28.8434L180.861 28.8331L180.841 28.826L180.807 28.8141L180.776 28.8033C180.735 28.7881 180.692 28.7722 180.65 28.7553C177.547 27.7716 174.747 26.6365 174.898 25.1231C175.125 22.2476 180.347 22.1719 180.423 22.1719C185.04 22.1719 186.478 24.0637 187.159 25.5014L195.182 22.3989C192.76 17.1019 187.462 14.2263 180.423 14.2263C173.99 14.2263 166.724 17.4045 166.194 24.5177C165.513 32.3119 174.368 35.1875 177.698 36.2469C177.889 36.2944 178.079 36.3717 178.25 36.4414C178.352 36.4827 178.446 36.5214 178.531 36.5496C178.711 36.6011 178.901 36.6614 179.099 36.7245C179.482 36.8468 179.898 36.9795 180.347 37.0793C185.191 38.5927 187.916 39.8791 187.992 42.3006C187.992 43.0573 187.689 43.7384 187.084 44.2681C185.797 45.4032 183.375 46.0842 180.877 45.9329C177.623 45.8572 173.763 44.4194 172.703 40.7872L164.302 42.906C166.194 49.2624 172.552 53.5757 180.423 53.8784H181.407C186.1 53.8784 190.338 52.5163 193.214 49.9435C195.56 47.8247 196.771 45.1005 196.696 42.0736C196.393 33.674 187.462 30.8742 183.148 29.5877Z" fill="white"/>
<path d="M28.8555 48.1789C29.7481 47.2873 30.0941 46.1687 30.0083 45.1005H33.302V53.046H23.9874L28.8555 48.1789Z" fill="white"/>
<path d="M0 53.046H5.41421C5.41075 52.072 5.77017 51.078 6.57795 50.2703L12.3107 44.5387L32.091 22.4746V15.1344H26.3455C26.4338 16.2038 26.0893 17.3246 25.1962 18.2175L19.8609 23.5519L0 45.7059V53.046Z" fill="white"/>
<path d="M1.73498 23.0799C1.73592 22.1126 2.09556 21.1267 2.89768 20.3248L8.08903 15.1344H1.21097V23.0799H1.73498Z" fill="white"/>
</g>
<mask id="mask1_360_344" style="mask-type:alpha" maskUnits="userSpaceOnUse" x="0" y="0" width="198" height="54">
<path fill-rule="evenodd" clip-rule="evenodd" d="M79.873 37.3904C80.1005 36.3287 80.1764 35.2668 80.1764 34.1292C80.1764 23.2079 70.6202 14.3343 58.7887 14.3343C47.0331 14.3343 37.477 23.2079 37.477 34.1292C37.477 45.0506 47.7157 53.9241 60.2298 53.9241C66.7005 53.9241 72.6508 51.5825 76.8738 47.675L70.9946 41.7957C68.4115 44.3582 64.4663 45.9607 60.2298 45.9607C53.859 45.9607 48.4741 42.3202 46.7298 37.3904H79.873ZM46.7298 30.868C48.2466 25.9382 53.1005 22.2977 58.7887 22.2977C64.5528 22.2977 69.4067 25.9382 70.9236 30.868H46.7298Z" fill="black"/>
<path d="M95.1263 53.0899V32.6486L89.7827 27.4677L95.1263 21.9563V0H86.4044V53.0899H95.1263Z" fill="black"/>
<path d="M111.791 53.0899V0H103.069V21.7329L108.353 26.856L103.069 32.3085V53.0899H111.791Z" fill="black"/>
<path fill-rule="evenodd" clip-rule="evenodd" d="M160.234 37.3904C160.461 36.3287 160.537 35.2668 160.537 34.1292C160.537 23.2079 150.981 14.3343 139.149 14.3343C127.394 14.3343 117.838 23.2079 117.838 34.1292C117.838 45.0506 128.076 53.9241 140.59 53.9241C147.121 53.9241 153.121 51.5392 157.351 47.5667L151.466 41.6843C148.886 44.3117 144.888 45.9607 140.59 45.9607C134.22 45.9607 128.835 42.3202 127.09 37.3904H160.234ZM127.09 30.868C128.607 25.9382 133.461 22.2977 139.149 22.2977C144.913 22.2977 149.767 25.9382 151.284 30.868H127.09Z" fill="black"/>
<path d="M183.526 29.6545C182.92 29.5028 182.465 29.3512 182.01 29.1995L182.009 29.1994C181.868 29.105 181.667 29.04 181.445 28.9677L181.444 28.9676C181.386 28.9486 181.326 28.9291 181.265 28.9085L181.234 28.8981L181.214 28.8911L181.18 28.8791L181.15 28.8683C181.108 28.8531 181.066 28.8371 181.023 28.8202C177.914 27.8343 175.108 26.6966 175.259 25.1798C175.487 22.2977 180.72 22.2219 180.796 22.2219C185.422 22.2219 186.863 24.118 187.546 25.559L195.585 22.4494C193.158 17.1404 187.849 14.2584 180.796 14.2584C174.349 14.2584 167.068 17.4438 166.538 24.573C165.855 32.3848 174.728 35.2668 178.066 36.3287C178.256 36.3763 178.446 36.4538 178.618 36.5236C178.72 36.565 178.815 36.6038 178.9 36.632C179.081 36.6837 179.27 36.7441 179.469 36.8074C179.853 36.9299 180.27 37.0629 180.72 37.1629C185.574 38.6798 188.304 39.9691 188.38 42.3961C188.38 43.1545 188.077 43.8371 187.47 44.368C186.181 45.5056 183.754 46.1882 181.251 46.0365C177.99 45.9607 174.122 44.5197 173.06 40.8792L164.641 43.0028C166.538 49.3736 172.908 53.6966 180.796 54H181.782C186.484 54 190.731 52.6348 193.613 50.0562C195.964 47.9326 197.178 45.2022 197.102 42.1685C196.799 33.75 187.849 30.9438 183.526 29.6545Z" fill="black"/>
<path d="M28.9151 48.2876C29.8096 47.394 30.1562 46.2728 30.0703 45.2022H33.3708V53.1657H24.0369L28.9151 48.2876Z" fill="black"/>
<path d="M0 53.1657H5.4254C5.42193 52.1895 5.78209 51.1932 6.59154 50.3838L12.3362 44.6391L32.1573 22.5253V15.1685H26.3999C26.4884 16.2404 26.1432 17.3637 25.2483 18.2586L19.9019 23.605L0 45.809V53.1657Z" fill="black"/>
<path d="M1.73857 23.132C1.7395 22.1625 2.09989 21.1744 2.90366 20.3706L8.10574 15.1685H1.21348V23.132H1.73857Z" fill="black"/>
</mask>
<g mask="url(#mask1_360_344)">
<rect y="15.3938" width="33.3533" height="37.6294" fill="url(#paint0_linear_360_344)"/>
</g>
<defs>
<linearGradient id="paint0_linear_360_344" x1="1.42204" y1="17.2505" x2="31.7146" y2="55.6766" gradientUnits="userSpaceOnUse">
<stop stop-color="#BFDDFF"/>
<stop offset="0.0001" stop-color="#BFDDFF"/>
<stop offset="1" stop-color="#47EAE0"/>
</linearGradient>
</defs>
</svg>
