<svg width="35" height="35" viewBox="0 0 35 35" fill="none" xmlns="http://www.w3.org/2000/svg">
<path d="M17.4998 2.91675C14.6155 2.91675 11.796 3.77205 9.39778 5.37448C6.99956 6.97692 5.13038 9.25453 4.0266 11.9193C2.92282 14.584 2.63402 17.5163 3.19673 20.3452C3.75943 23.174 5.14835 25.7725 7.18787 27.8121C9.22739 29.8516 11.8259 31.2405 14.6548 31.8032C17.4837 32.3659 20.4159 32.0771 23.0806 30.9733C25.7454 29.8696 28.023 28.0004 29.6254 25.6021C31.2279 23.2039 32.0832 20.3844 32.0832 17.5001C32.0832 15.585 31.706 13.6886 30.9731 11.9193C30.2402 10.15 29.166 8.5423 27.8118 7.18811C26.4576 5.83392 24.85 4.75972 23.0806 4.02684C21.3113 3.29396 19.415 2.91675 17.4998 2.91675V2.91675ZM17.4998 29.1668C15.1924 29.1668 12.9368 28.4825 11.0182 27.2006C9.09962 25.9186 7.60427 24.0965 6.72125 21.9647C5.83823 19.8329 5.60719 17.4871 6.05735 15.224C6.50751 12.9609 7.61865 10.8821 9.25026 9.2505C10.8819 7.61889 12.9607 6.50775 15.2238 6.05759C17.4869 5.60743 19.8327 5.83847 21.9645 6.72149C24.0963 7.60451 25.9184 9.09986 27.2003 11.0184C28.4823 12.937 29.1665 15.1926 29.1665 17.5001C29.1665 20.5943 27.9373 23.5617 25.7494 25.7497C23.5615 27.9376 20.594 29.1668 17.4998 29.1668V29.1668ZM20.5623 14.0438L18.9582 14.9772V10.2084C18.9582 9.82164 18.8045 9.45071 18.531 9.17722C18.2575 8.90373 17.8866 8.75008 17.4998 8.75008C17.1131 8.75008 16.7421 8.90373 16.4686 9.17722C16.1952 9.45071 16.0415 9.82164 16.0415 10.2084V17.5001C16.0415 17.5001 16.0415 17.5001 16.0415 17.5876C16.0347 17.6847 16.0347 17.7821 16.0415 17.8793C16.0641 17.9688 16.0933 18.0566 16.129 18.1417C16.129 18.1417 16.129 18.1417 16.129 18.2292C16.1987 18.3327 16.2767 18.4303 16.3623 18.5209V18.5209C16.4802 18.6377 16.6186 18.7317 16.7707 18.798H16.8873C17.0773 18.8957 17.2864 18.9504 17.4998 18.9584V18.9584C17.6698 18.9536 17.8376 18.919 17.9957 18.8563H18.1269H18.229L22.0207 16.6688C22.3572 16.4754 22.6031 16.1563 22.7042 15.7816C22.8054 15.4069 22.7536 15.0074 22.5603 14.6709C22.3669 14.3344 22.0477 14.0885 21.6731 13.9873C21.2984 13.8862 20.8988 13.9379 20.5623 14.1313V14.0438Z" fill="white"/>
</svg>
