<svg width="40" height="40" viewBox="0 0 40 40" fill="none" xmlns="http://www.w3.org/2000/svg">
<path d="M32.4 21.6666C32.0333 21.6666 31.65 21.5499 31.2833 21.4666C30.5408 21.303 29.8111 21.0857 29.1 20.8166C28.3268 20.5353 27.4769 20.5499 26.7138 20.8576C25.9508 21.1653 25.3285 21.7443 24.9667 22.4833L24.6 23.2333C22.9767 22.3302 21.485 21.2087 20.1667 19.8999C18.8579 18.5816 17.7364 17.0899 16.8333 15.4666L17.5333 14.9999C18.2723 14.6381 18.8513 14.0158 19.159 13.2528C19.4667 12.4897 19.4813 11.6398 19.2 10.8666C18.9354 10.154 18.7182 9.42461 18.55 8.68328C18.4667 8.31661 18.4 7.93328 18.35 7.54994C18.1476 6.37598 17.5327 5.31285 16.616 4.55201C15.6994 3.79117 14.5412 3.38262 13.35 3.39994H8.35C7.63172 3.3932 6.92042 3.5413 6.26452 3.83416C5.60862 4.12702 5.02352 4.55777 4.54905 5.09708C4.07458 5.63639 3.72189 6.2716 3.51498 6.95947C3.30807 7.64733 3.2518 8.37171 3.35 9.08328C4.2379 16.0656 7.42671 22.5531 12.4128 27.521C17.3988 32.4889 23.8978 35.6541 30.8833 36.5166H31.5167C32.7457 36.5184 33.9323 36.0675 34.85 35.2499C35.3773 34.7784 35.7985 34.2002 36.0858 33.5538C36.3731 32.9074 36.5199 32.2073 36.5167 31.4999V26.4999C36.4963 25.3423 36.0747 24.2275 35.3239 23.3461C34.5731 22.4646 33.5397 21.871 32.4 21.6666ZM33.2333 31.6666C33.233 31.9033 33.1823 32.1371 33.0846 32.3526C32.9869 32.5682 32.8444 32.7604 32.6667 32.9166C32.481 33.0783 32.2633 33.199 32.0278 33.2708C31.7923 33.3426 31.5443 33.3639 31.3 33.3333C25.0582 32.533 19.2604 29.6774 14.8212 25.2171C10.382 20.7568 7.55402 14.9455 6.78333 8.69994C6.75681 8.45581 6.78005 8.20883 6.85167 7.97393C6.92329 7.73903 7.04178 7.52109 7.2 7.33328C7.35618 7.1555 7.54844 7.01301 7.76396 6.91531C7.97949 6.8176 8.21336 6.76691 8.45 6.76661H13.45C13.8376 6.75799 14.216 6.88474 14.5202 7.12506C14.8244 7.36538 15.0353 7.70423 15.1167 8.08328C15.1833 8.53883 15.2667 8.98883 15.3667 9.43328C15.5592 10.3119 15.8154 11.1752 16.1333 12.0166L13.8 13.0999C13.6005 13.1915 13.421 13.3215 13.2719 13.4826C13.1228 13.6437 13.007 13.8326 12.9311 14.0386C12.8552 14.2446 12.8208 14.4635 12.8297 14.6828C12.8387 14.9021 12.8909 15.1175 12.9833 15.3166C15.382 20.4545 19.5121 24.5846 24.65 26.9833C25.0558 27.15 25.5109 27.15 25.9167 26.9833C26.1245 26.9089 26.3155 26.794 26.4786 26.6453C26.6417 26.4965 26.7736 26.3168 26.8667 26.1166L27.9 23.7833C28.7616 24.0914 29.641 24.3474 30.5333 24.5499C30.9778 24.6499 31.4278 24.7333 31.8833 24.7999C32.2624 24.8813 32.6012 25.0922 32.8415 25.3964C33.0819 25.7006 33.2086 26.079 33.2 26.4666L33.2333 31.6666Z" fill="white"/>
</svg>
