<svg width="40" height="40" viewBox="0 0 40 40" fill="none" xmlns="http://www.w3.org/2000/svg">
<path d="M19.9905 3.33325C16.6942 3.33325 13.4718 4.31073 10.731 6.14209C7.9902 7.97345 5.854 10.5764 4.59253 13.6219C3.33107 16.6673 3.00102 20.0184 3.64411 23.2514C4.28719 26.4844 5.87454 29.4542 8.20541 31.785C10.5363 34.1159 13.506 35.7033 16.739 36.3463C19.972 36.9894 23.3231 36.6594 26.3686 35.3979C29.414 34.1365 32.017 32.0002 33.8484 29.2594C35.6797 26.5186 36.6572 23.2963 36.6572 19.9999C36.6574 17.8112 36.2264 15.6438 35.3889 13.6216C34.5514 11.5995 33.3237 9.76208 31.776 8.2144C30.2284 6.66672 28.391 5.43907 26.3688 4.60156C24.3466 3.76404 22.1793 3.33307 19.9905 3.33325ZM25.2897 28.5874C25.2273 28.7429 25.1324 28.8833 25.0113 28.9992C24.8902 29.1151 24.7458 29.2037 24.5876 29.2592C24.4295 29.3147 24.2613 29.3357 24.0944 29.3209C23.9274 29.306 23.7656 29.2557 23.6197 29.1732L19.0953 25.6576L16.1914 28.3366C16.124 28.3864 16.0452 28.4184 15.9622 28.4297C15.8792 28.4411 15.7947 28.4314 15.7164 28.4015L16.2731 23.4207L16.2909 23.4349L16.3023 23.3365C16.3023 23.3365 24.4439 15.924 24.7756 15.6082C25.1114 15.2932 25.0006 15.2249 25.0006 15.2249C25.0197 14.8406 24.3981 15.2249 24.3981 15.2249L13.6105 22.1649L9.11804 20.6349C9.11804 20.6349 8.42804 20.3874 8.36304 19.8433C8.29471 19.3033 9.14053 19.0099 9.14053 19.0099L27.0022 11.9141C27.0022 11.9141 28.4705 11.2599 28.4705 12.3433L25.2897 28.5874Z" fill="white"/>
</svg>
