<svg width="40" height="40" viewBox="0 0 40 40" fill="none" xmlns="http://www.w3.org/2000/svg">
<path fill-rule="evenodd" clip-rule="evenodd" d="M2.80667 2.80667C0 5.61333 0 10.132 0 19.1667V20.8333C0 29.8667 0 34.3867 2.80667 37.1933C5.61333 40 10.132 40 19.1667 40H20.8333C29.8667 40 34.3867 40 37.1933 37.1933C40 34.3867 40 29.868 40 20.8333V19.1667C40 10.1333 40 5.61333 37.1933 2.80667C34.3867 0 29.868 0 20.8333 0H19.1667C10.1333 0 5.61333 0 2.80667 2.80667ZM7.91732 12.5H10.8333C11.5786 12.5 11.8586 12.8267 12.1386 13.6347C13.5653 17.7893 15.9706 21.4213 16.9586 21.4213C17.3306 21.4213 17.5 21.2507 17.5 20.308V16.0133C17.4332 14.7908 17.0061 14.2619 16.6897 13.8702C16.4944 13.6284 16.3413 13.4389 16.3413 13.1707C16.3413 12.844 16.62 12.5 17.0826 12.5H21.6666C22.2853 12.5 22.5 12.8307 22.5 13.572V19.3507C22.5 19.968 22.768 20.1853 22.9533 20.1853C23.324 20.1853 23.6333 19.968 24.3133 19.288C26.4146 16.94 27.8973 13.3253 27.8973 13.3253C28.0826 12.892 28.4253 12.5 29.1666 12.5H32.0826C32.9653 12.5 33.152 12.9547 32.9653 13.572C32.5946 15.272 29.0413 20.2773 29.0413 20.2773C28.732 20.772 28.608 21.0187 29.0413 21.5747C29.1942 21.7889 29.5205 22.1087 29.8935 22.4743C30.275 22.8482 30.7055 23.2701 31.0493 23.676C32.3026 25.0853 33.2466 26.2747 33.5093 27.0933C33.7506 27.916 33.3333 28.3333 32.5 28.3333H29.5826C28.8016 28.3333 28.4087 27.8959 27.5588 26.95C27.1987 26.5491 26.7565 26.0569 26.168 25.468C24.436 23.8 23.696 23.584 23.2626 23.584C22.676 23.584 22.5 23.7507 22.5 24.584V27.2C22.5 27.916 22.2706 28.3333 20.416 28.3333C17.3266 28.3333 13.9306 26.4573 11.5213 22.996C7.90532 17.9293 6.91732 14.0973 6.91732 13.3253C6.91732 12.892 7.08398 12.5 7.91732 12.5Z" fill="white"/>
</svg>
