<svg width="40" height="40" viewBox="0 0 40 40" fill="none" xmlns="http://www.w3.org/2000/svg">
<path d="M31.6667 6.66675H8.33333C7.00725 6.66675 5.73548 7.19353 4.79779 8.13121C3.86011 9.0689 3.33333 10.3407 3.33333 11.6667V28.3334C3.33333 29.6595 3.86011 30.9313 4.79779 31.8689C5.73548 32.8066 7.00725 33.3334 8.33333 33.3334H31.6667C32.9927 33.3334 34.2645 32.8066 35.2022 31.8689C36.1399 30.9313 36.6667 29.6595 36.6667 28.3334V11.6667C36.6667 10.3407 36.1399 9.0689 35.2022 8.13121C34.2645 7.19353 32.9927 6.66675 31.6667 6.66675ZM8.33333 10.0001H31.6667C32.1087 10.0001 32.5326 10.1757 32.8452 10.4882C33.1577 10.8008 33.3333 11.2247 33.3333 11.6667L20 19.8001L6.66666 11.6667C6.66666 11.2247 6.84226 10.8008 7.15482 10.4882C7.46738 10.1757 7.8913 10.0001 8.33333 10.0001ZM33.3333 28.3334C33.3333 28.7754 33.1577 29.1994 32.8452 29.5119C32.5326 29.8245 32.1087 30.0001 31.6667 30.0001H8.33333C7.8913 30.0001 7.46738 29.8245 7.15482 29.5119C6.84226 29.1994 6.66666 28.7754 6.66666 28.3334V15.4667L19.1333 23.0834C19.3867 23.2297 19.6741 23.3067 19.9667 23.3067C20.2592 23.3067 20.5466 23.2297 20.8 23.0834L33.3333 15.4667V28.3334Z" fill="white"/>
</svg>
