<svg width="31" height="31" viewBox="0 0 31 31" fill="none" xmlns="http://www.w3.org/2000/svg">
<path d="M15.4998 0.916748C12.6155 0.916748 9.79599 1.77205 7.39778 3.37448C4.99956 4.97692 3.13038 7.25453 2.0266 9.91928C0.922823 12.584 0.634024 15.5163 1.19673 18.3452C1.75943 21.174 3.14835 23.7725 5.18787 25.8121C7.22739 27.8516 9.82589 29.2405 12.6548 29.8032C15.4837 30.3659 18.4159 30.0771 21.0806 28.9733C23.7454 27.8696 26.023 26.0004 27.6254 23.6021C29.2279 21.2039 30.0832 18.3844 30.0832 15.5001C30.0832 13.585 29.706 11.6886 28.9731 9.91928C28.2402 8.14995 27.166 6.5423 25.8118 5.18811C24.4576 3.83392 22.85 2.75972 21.0806 2.02684C19.3113 1.29396 17.415 0.916748 15.4998 0.916748V0.916748ZM15.4998 27.1668C13.1924 27.1668 10.9368 26.4825 9.01819 25.2006C7.09962 23.9186 5.60427 22.0965 4.72125 19.9647C3.83823 17.8329 3.60719 15.4871 4.05735 13.224C4.50751 10.9609 5.61865 8.88212 7.25026 7.2505C8.88188 5.61889 10.9607 4.50775 13.2238 4.05759C15.4869 3.60743 17.8327 3.83847 19.9645 4.72149C22.0963 5.60451 23.9184 7.09986 25.2003 9.01843C26.4823 10.937 27.1665 13.1926 27.1665 15.5001C27.1665 18.5943 25.9373 21.5617 23.7494 23.7497C21.5615 25.9376 18.594 27.1668 15.4998 27.1668V27.1668ZM18.5623 12.0438L16.9582 12.9772V8.20842C16.9582 7.82164 16.8045 7.45071 16.531 7.17722C16.2575 6.90373 15.8866 6.75008 15.4998 6.75008C15.1131 6.75008 14.7421 6.90373 14.4686 7.17722C14.1952 7.45071 14.0415 7.82164 14.0415 8.20842V15.5001C14.0415 15.5001 14.0415 15.5001 14.0415 15.5876C14.0347 15.6847 14.0347 15.7821 14.0415 15.8793C14.0641 15.9688 14.0933 16.0566 14.129 16.1417C14.129 16.1417 14.129 16.1417 14.129 16.2292C14.1987 16.3327 14.2767 16.4303 14.3623 16.5209V16.5209C14.4802 16.6377 14.6186 16.7317 14.7707 16.798H14.8873C15.0773 16.8957 15.2864 16.9504 15.4998 16.9584V16.9584C15.6698 16.9536 15.8376 16.919 15.9957 16.8563H16.1269H16.229L20.0207 14.6688C20.3572 14.4754 20.6031 14.1563 20.7042 13.7816C20.8054 13.4069 20.7536 13.0074 20.5603 12.6709C20.3669 12.3344 20.0477 12.0885 19.6731 11.9873C19.2984 11.8862 18.8988 11.9379 18.5623 12.1313V12.0438Z" fill="white"/>
</svg>
